<svg aria-hidden="true" style="position: absolute; width: 0; height: 0; overflow: hidden;" version="1.1" xmlns="http://www.w3.org/2000/svg" xmlns:xlink="http://www.w3.org/1999/xlink">
<defs>
<symbol id="icon-menu" viewBox="0 0 30 30">
<path d="M 3 7 A 1.0001 1.0001 0 1 0 3 9 L 27 9 A 1.0001 1.0001 0 1 0 27 7 L 3 7 z M 3 14 A 1.0001 1.0001 0 1 0 3 16 L 27 16 A 1.0001 1.0001 0 1 0 27 14 L 3 14 z M 3 21 A 1.0001 1.0001 0 1 0 3 23 L 27 23 A 1.0001 1.0001 0 1 0 27 21 L 3 21 z"/>
</symbol>
<symbol id="icon-headline" viewBox="0 0 682 48">
<path d="M76.8094 45.9543C76.8094 47.3181 77.3384 48 78.69 48C79.9535 48 81.2464 48.0296 82.5099 48C83.6265 47.9703 84.2142 47.407 84.1848 46.2211C84.1554 45.2427 84.273 44.2347 84.1554 43.2563C84.0379 41.9222 84.5962 41.596 85.8303 41.596C91.9422 41.6553 98.054 41.6257 104.195 41.6257C105.929 41.6257 106.37 41.181 106.37 39.4317C106.37 30.9821 106.37 22.5324 106.37 14.0828C106.37 12.3335 105.958 11.9185 104.195 11.9185C95.7621 11.9185 87.3583 11.9185 78.9251 11.9185C77.1914 11.9185 76.8094 12.3335 76.8094 14.1124C76.8094 19.3897 76.8094 24.6967 76.8094 29.974C76.8388 35.281 76.8388 40.6177 76.8094 45.9543ZM84.1848 20.546C84.1848 19.6566 84.508 19.3008 85.3895 19.3008C89.5621 19.3304 93.7052 19.3304 97.8777 19.3008C98.7004 19.3008 99.0237 19.6862 99.0237 20.4571C99.0237 24.6078 98.9943 28.7585 99.0237 32.9092C99.0237 33.9172 98.5535 34.1544 97.672 34.1544C95.6151 34.1248 93.5583 34.1544 91.5014 34.1544C89.5327 34.1544 87.5933 34.1248 85.6246 34.1544C84.6549 34.1841 84.1848 33.9172 84.1848 32.8202C84.2142 28.7288 84.2142 24.6374 84.1848 20.546Z"/>
<path d="M257.99 26.2681C257.99 30.4188 257.99 34.5695 257.99 38.7202C257.99 40.8548 257.697 41.1513 255.522 41.1513C254.582 41.1513 253.671 41.1513 252.731 41.1513C250.938 41.1513 250.645 40.8252 250.645 38.9574C250.645 32.8795 250.615 26.8017 250.674 20.7239C250.703 19.3008 250.292 18.8264 248.852 18.8561C245.032 18.945 241.212 18.945 237.392 18.8561C236.158 18.8264 235.776 19.2711 235.806 20.4867C235.864 26.5052 235.835 32.5238 235.835 38.572C235.835 40.9438 235.629 41.1513 233.22 41.1513C232.28 41.1513 231.369 41.1217 230.428 41.1513C229.077 41.2106 228.43 40.6177 228.43 39.2242C228.43 30.5967 228.43 21.9395 228.43 13.3119C228.43 12.0074 229.047 11.4441 230.34 11.4441C238.95 11.4441 247.559 11.4441 256.169 11.4441C257.462 11.4441 258.02 12.0963 258.02 13.3712C257.961 17.6998 257.99 21.9988 257.99 26.2681Z"/>
<path d="M188.821 11.7702C192.935 11.7702 197.048 11.7702 201.162 11.7702C203.16 11.7702 203.513 12.0964 203.513 14.0531C203.513 17.0772 203.513 20.0717 203.513 23.0957C203.513 25.0229 203.16 25.3786 201.309 25.3786C200.192 25.3786 199.046 25.3786 197.93 25.3786C196.725 25.3786 196.108 24.7857 196.108 23.5701C196.108 22.5324 196.079 21.4948 196.137 20.4571C196.196 19.4787 195.755 19.1822 194.815 19.1822C190.848 19.2119 186.881 19.2415 182.915 19.1822C181.681 19.1526 181.299 19.5973 181.328 20.8129C181.387 26.8314 181.357 32.8499 181.357 38.8981C181.357 41.2996 181.181 41.4775 178.742 41.4775C177.772 41.4775 176.773 41.4775 175.804 41.4775C174.599 41.5071 173.982 40.9141 173.982 39.6986C173.982 31.0117 173.982 22.3249 173.982 13.6084C173.982 12.2742 174.658 11.7702 175.892 11.7702C180.182 11.7702 184.501 11.7702 188.821 11.7702Z"/>
<path d="M150.416 11.7702C154.618 11.7702 158.82 11.7702 163.051 11.7702C164.697 11.7702 165.137 12.2149 165.137 13.8752C165.137 15.0611 165.137 16.2471 165.137 17.433C165.137 18.6782 164.52 19.2415 163.345 19.2119C160.789 19.2119 158.262 19.2711 155.705 19.1822C154.559 19.1526 154.177 19.538 154.177 20.7239C154.236 26.8314 154.207 32.9685 154.207 39.1056C154.207 41.1513 153.854 41.4774 151.797 41.4774C150.827 41.4774 149.828 41.4774 148.859 41.4774C147.155 41.4478 146.802 41.1217 146.802 39.3724C146.802 33.2946 146.743 27.2168 146.831 21.139C146.861 19.6862 146.508 19.1229 144.951 19.1822C142.512 19.3008 140.073 19.1822 137.605 19.2119C136.253 19.2415 135.607 18.6485 135.665 17.2551C135.724 16.0692 135.724 14.8833 135.665 13.6973C135.607 12.3039 136.253 11.7406 137.605 11.7406C141.895 11.7702 146.155 11.7702 150.416 11.7702Z"/>
<path d="M219.615 26.2681C219.615 30.5077 219.615 34.7474 219.615 39.0167C219.615 40.8549 219.292 41.181 217.47 41.181C216.295 41.181 215.119 41.181 213.944 41.181C212.798 41.181 212.24 40.5584 212.24 39.4318C212.24 30.6856 212.24 21.9395 212.24 13.223C212.24 12.0964 212.827 11.5034 213.973 11.4738C215.208 11.4738 216.412 11.4738 217.646 11.4738C219.204 11.5034 219.615 11.9185 219.615 13.5195C219.615 17.7591 219.615 22.0284 219.615 26.2681Z"/>
<path d="M377.877 28.966C383.959 29.055 390.012 28.9957 396.095 28.9957C396.33 28.9957 396.506 28.9957 396.683 28.966C397.505 28.8771 397.917 28.6103 398.064 27.9284C398.122 27.6615 398.152 27.3058 398.152 26.8907C398.152 26.0605 398.152 25.2008 398.152 24.3706C398.152 22.9772 398.093 22.2656 397.652 21.9098C397.329 21.5541 396.771 21.4651 395.772 21.4651C389.748 21.4651 383.724 21.4058 377.701 21.4948C376.173 21.5244 375.967 20.8722 375.938 19.5676C375.908 18.1445 376.29 17.6702 377.759 17.6998C383.842 17.7888 389.895 17.7295 395.977 17.7295C397.623 17.7295 398.034 17.3144 398.064 15.6245C398.064 14.7943 398.064 13.9345 398.064 13.1044C398.064 10.4954 397.858 10.2878 395.36 10.2878H383.313C379.14 10.2878 374.997 10.2878 370.825 10.2878C368.974 10.2878 368.592 10.6733 368.592 12.5707C368.592 17.2255 368.592 21.8505 368.592 26.5053C368.592 27.0389 368.621 27.454 368.68 27.7801C368.68 31.1007 368.68 34.4509 368.68 37.7715C368.68 39.8172 369.032 40.173 371.06 40.173C377.084 40.173 383.107 40.173 389.131 40.173C389.513 40.173 389.983 40.0247 390.336 40.2323H396.683C397.505 40.2323 398.152 39.5504 398.152 38.7499V35.1032C398.152 33.1167 397.828 32.761 395.86 32.761C389.836 32.761 383.812 32.7017 377.789 32.7906C376.261 32.8203 376.055 32.168 376.026 30.8635C376.026 29.4108 376.408 28.9364 377.877 28.966Z"/>
<path d="M577.834 22.1767C577.834 27.454 577.834 32.7313 577.834 38.0383C577.834 39.8172 578.216 40.2323 579.95 40.2323C588.354 40.2323 596.787 40.2323 605.22 40.2323C606.983 40.2323 607.394 39.8172 607.394 38.068C607.394 29.6183 607.394 21.1686 607.394 12.719C607.394 10.9697 606.954 10.525 605.22 10.525C599.108 10.525 592.996 10.4954 586.855 10.5547C585.591 10.5547 585.033 10.2285 585.18 8.89439C585.268 7.91601 585.18 6.90798 585.209 5.9296C585.239 4.74368 584.651 4.18037 583.535 4.15072C582.271 4.12107 580.978 4.15072 579.715 4.15072C578.363 4.15072 577.805 4.80297 577.834 6.19643C577.834 11.5034 577.834 16.84 577.834 22.1767ZM585.151 19.3008C585.151 18.2038 585.621 17.9667 586.591 17.9667C588.559 17.9963 590.499 17.9667 592.467 17.9667C594.524 17.9667 596.581 17.9963 598.638 17.9667C599.519 17.9667 600.019 18.2038 599.99 19.2119C599.96 23.3626 599.99 27.5133 599.99 31.664C599.99 32.4348 599.696 32.8499 598.844 32.8203C594.671 32.7906 590.528 32.7906 586.355 32.8203C585.474 32.8203 585.151 32.4941 585.151 31.5751C585.209 27.4836 585.209 23.3922 585.151 19.3008Z"/>
<path d="M472.464 12.63C472.464 10.9994 471.993 10.525 470.377 10.525C461.915 10.525 453.452 10.525 444.99 10.525C443.373 10.525 442.903 10.9697 442.903 12.63C442.903 21.139 442.903 29.6183 442.903 38.1273C442.903 39.7579 443.373 40.2323 444.99 40.2323C453.452 40.2323 461.915 40.2323 470.407 40.2323C472.023 40.2323 472.493 39.7579 472.493 38.1273C472.493 33.8876 472.493 29.6479 472.493 25.3786C472.463 21.139 472.464 16.8697 472.464 12.63ZM465.118 31.3675C465.118 32.4645 464.706 32.8499 463.648 32.8203C461.65 32.761 459.623 32.8203 457.625 32.8203C455.656 32.8203 453.717 32.7906 451.748 32.8203C450.719 32.8499 450.22 32.5534 450.249 31.3972C450.308 27.3947 450.279 23.3922 450.249 19.3898C450.249 18.2928 450.631 17.937 451.718 17.937C455.685 17.9963 459.652 17.9963 463.619 17.937C464.794 17.937 465.147 18.3521 465.147 19.5083C465.059 23.4515 465.059 27.4243 465.118 31.3675Z"/>
<path d="M570.018 12.63C570.018 10.9994 569.548 10.525 567.932 10.525C559.469 10.525 551.007 10.525 542.544 10.525C540.928 10.525 540.458 10.9697 540.458 12.63C540.458 21.139 540.458 29.6183 540.458 38.1273C540.458 39.7579 540.928 40.2323 542.544 40.2323C551.007 40.2323 559.469 40.2323 567.961 40.2323C569.577 40.2323 570.047 39.7579 570.047 38.1273C570.047 33.8876 570.047 29.6479 570.047 25.3786C570.018 21.139 570.018 16.8697 570.018 12.63ZM562.672 31.3675C562.672 32.4645 562.261 32.8499 561.203 32.8203C559.205 32.761 557.177 32.8203 555.179 32.8203C553.21 32.8203 551.271 32.7906 549.302 32.8203C548.274 32.8499 547.774 32.5534 547.804 31.3972C547.863 27.3947 547.833 23.3922 547.804 19.3898C547.804 18.2928 548.186 17.937 549.273 17.937C553.24 17.9963 557.207 17.9963 561.174 17.937C562.349 17.937 562.701 18.3521 562.701 19.5083C562.613 23.4515 562.613 27.4243 562.672 31.3675Z"/>
<path d="M644.653 12.63C644.653 10.9994 644.183 10.525 642.567 10.525C634.104 10.525 625.642 10.525 617.179 10.525C615.563 10.525 615.093 10.9697 615.093 12.63C615.093 21.139 615.093 29.6183 615.093 38.1273C615.093 39.7579 615.563 40.2323 617.179 40.2323C625.642 40.2323 634.104 40.2323 642.596 40.2323C644.212 40.2323 644.682 39.7579 644.682 38.1273C644.682 33.8876 644.682 29.6479 644.682 25.3786C644.653 21.139 644.653 16.8697 644.653 12.63ZM637.307 31.3675C637.307 32.4645 636.896 32.8499 635.838 32.8203C633.84 32.761 631.812 32.8203 629.814 32.8203C627.845 32.8203 625.906 32.7906 623.937 32.8203C622.909 32.8499 622.409 32.5534 622.439 31.3972C622.498 27.3947 622.468 23.3922 622.439 19.3898C622.439 18.2928 622.821 17.937 623.908 17.937C627.875 17.9963 631.842 17.9963 635.809 17.937C636.984 17.937 637.336 18.3521 637.307 19.5083C637.248 23.4515 637.248 27.4243 637.307 31.3675Z"/>
<path d="M517.626 10.525C521.74 10.525 525.854 10.525 529.968 10.525C531.966 10.525 532.318 10.8512 532.318 12.8079C532.318 15.832 532.318 18.8264 532.318 21.8505C532.318 23.7776 531.966 24.1334 530.115 24.1334C528.998 24.1334 527.852 24.1334 526.735 24.1334C525.531 24.1334 524.914 23.5405 524.914 22.3249C524.914 21.2872 524.884 20.2495 524.943 19.2119C525.002 18.2335 524.561 17.937 523.621 17.937C519.654 17.9667 515.687 17.9963 511.72 17.937C510.486 17.9074 510.104 18.3521 510.134 19.5676C510.192 25.5862 510.163 31.6047 510.163 37.6529C510.163 40.0544 509.987 40.2323 507.548 40.2323C506.578 40.2323 505.579 40.2323 504.609 40.2323C503.405 40.2619 502.788 39.6689 502.788 38.4534C502.788 29.7665 502.788 21.0797 502.788 12.3632C502.788 11.029 503.463 10.525 504.698 10.525C508.988 10.5547 513.307 10.525 517.626 10.525Z"/>
<path d="M667.279 10.525C671.481 10.525 675.682 10.525 679.914 10.525C681.559 10.525 682 10.9697 682 12.63C682 13.8159 682 15.0018 682 16.1878C682 17.433 681.383 17.9963 680.208 17.9666C677.651 17.9666 675.124 18.0259 672.568 17.937C671.422 17.9073 671.04 18.2928 671.04 19.4787C671.099 25.5862 671.069 31.7233 671.069 37.8604C671.069 39.9061 670.717 40.2322 668.66 40.2322C667.69 40.2322 666.691 40.2322 665.721 40.2322C664.017 40.2026 663.665 39.8765 663.665 38.1272C663.665 32.0494 663.606 25.9716 663.694 19.8938C663.723 18.441 663.371 17.8777 661.813 17.937C659.374 18.0556 656.936 17.937 654.467 17.9666C653.116 17.9963 652.469 17.4033 652.528 16.0099C652.587 14.824 652.587 13.638 652.528 12.4521C652.469 11.0587 653.116 10.4954 654.467 10.4954C658.757 10.5547 663.018 10.525 667.279 10.525Z"/>
<path d="M360.54 34.7474C360.599 33.3539 359.953 32.761 358.601 32.7906C358.454 32.7906 358.337 32.7906 358.219 32.7906H358.101C357.631 32.7906 357.161 32.7906 356.691 32.7906C355.251 32.7906 353.782 32.761 352.342 32.7906C351.99 32.7906 351.637 32.8203 351.284 32.8203C351.049 32.8203 350.844 32.8203 350.667 32.8203C350.55 32.8203 350.432 32.7906 350.315 32.7906H341.264C341.176 32.7906 341.088 32.7906 341 32.8203C340.882 32.8203 340.736 32.8499 340.589 32.8203C340.06 32.8203 339.736 32.7906 339.736 32.7906H339.619C338.767 32.6424 338.532 32.0494 338.561 30.8635C338.649 24.7857 338.591 18.7079 338.591 12.63C338.591 10.8808 338.238 10.525 336.534 10.525C335.564 10.525 334.565 10.525 333.595 10.525C331.538 10.525 331.186 10.8512 331.186 12.8969C331.186 15.0612 331.186 17.2551 331.186 19.4194C331.186 20.6053 331.186 21.7912 331.186 22.9772C331.186 24.9636 331.186 26.9796 331.215 28.966C331.215 29.1439 331.215 29.3218 331.215 29.4997C331.215 30.0927 331.215 30.6856 331.215 31.2489C331.215 31.3972 331.215 31.5158 331.215 31.6344V32.761V33.8876V38.9574C331.391 39.9061 331.92 40.2026 333.243 40.2026C337.445 40.2026 341.676 40.2026 345.878 40.2026C350.138 40.2026 354.399 40.2026 358.66 40.2026C360.011 40.2026 360.658 39.6689 360.599 38.2458C360.482 37.0896 360.482 35.9037 360.54 34.7474Z"/>
<path d="M29.3839 35.6368C29.4427 34.2434 28.7962 33.6504 27.4446 33.68C27.327 33.68 27.1801 33.68 27.0626 33.68H26.945C26.4749 33.68 26.0047 33.68 25.5346 33.68C24.0654 33.68 22.6256 33.6504 21.1858 33.68C20.8332 33.68 20.4806 33.7097 20.128 33.7097C19.8929 33.7097 19.6872 33.7097 19.5109 33.7097C19.3934 33.7097 19.2758 33.68 19.1583 33.68H10.0787C9.99052 33.68 9.90237 33.68 9.81422 33.7097C9.69668 33.7097 9.54976 33.7393 9.40284 33.7097C8.87393 33.7097 8.55071 33.68 8.55071 33.68H8.43318C7.58104 33.5318 7.34597 32.9388 7.37536 31.7529C7.46351 25.6751 7.40474 13.3712 7.40474 7.29339C7.40474 5.54416 7.05213 5.18839 5.34787 5.18839C4.3782 5.18839 3.37915 5.18839 2.40948 5.18839C0.352607 5.18839 0 5.51451 0 7.56022C0 9.72452 0 18.1445 0 20.3088C0 21.4947 0 22.6807 0 23.8666C0 25.853 0 27.8691 0 29.8555C0 30.0333 0 30.2112 0 30.3891C0 30.9821 0 31.575 0 32.1384C0 32.2866 0 32.4052 0 32.5238V33.6504V34.777V39.8468C0.176303 40.7955 0.705213 41.092 2.02749 41.092C6.22938 41.092 10.4607 41.092 14.6626 41.092C18.9232 41.092 23.1839 41.092 27.4446 41.092C28.7962 41.092 29.4427 40.5584 29.3839 39.1353C29.3251 37.979 29.3251 36.7931 29.3839 35.6368Z"/>
<path d="M67.7887 37.6825C67.7887 37.2971 67.7887 36.9413 67.7887 36.5559C67.7887 32.6424 67.7887 28.7288 67.7887 24.8153C67.7887 24.7857 67.7887 24.756 67.7887 24.7264C67.7887 21.05 67.7887 17.3737 67.7887 13.6973C67.7887 11.8295 67.4067 11.4441 65.5555 11.4441C57.2399 11.4441 48.9242 11.4441 40.5792 11.4441C38.6986 11.4441 38.3167 11.7999 38.3167 13.6677C38.3167 14.7054 38.3167 15.743 38.3167 16.7807C38.346 18.441 38.7574 18.8857 40.4323 18.8857C46.5148 18.8857 52.5678 18.8857 58.6503 18.9154C59.238 18.9154 60.0607 18.5892 60.2958 19.4194C60.5603 20.3088 60.619 21.2872 60.237 22.1766C60.1489 22.3842 60.002 22.5028 59.8257 22.5621C59.5318 22.5621 59.238 22.5621 58.9735 22.5621C58.9148 22.5621 58.856 22.5621 58.7972 22.5621C52.7735 22.5621 46.7498 22.5621 40.7261 22.5621C38.6986 22.5621 38.346 22.9178 38.346 24.9635C38.346 29.6183 38.346 34.2434 38.346 38.8981C38.346 40.7659 38.728 41.181 40.5792 41.181C44.7517 41.181 48.8949 41.181 53.0674 41.181C54.037 41.181 55.0067 41.181 56.0058 41.181C59.1498 41.181 62.2939 41.181 65.438 41.181C65.8787 41.181 66.2313 41.1513 66.5252 41.1217C66.5546 41.1217 66.6133 41.1217 66.6427 41.092H66.6721C67.2892 40.9734 67.583 40.7066 67.7005 40.084C67.7887 39.7579 67.8181 39.3131 67.8181 38.7795C67.7887 38.3941 67.7887 38.0383 67.7887 37.6825ZM54.037 33.7393C51.5982 33.7393 49.1887 33.7393 46.7498 33.7393C45.8977 33.5911 45.6332 33.0574 45.6626 31.9308C45.692 30.8042 45.8389 30.1816 46.8086 30.0333C48.5716 30.0333 50.3347 30.0333 52.0977 30.0333C54.5072 30.0333 56.9167 30.0333 59.3261 30.0333C60.2076 30.1816 60.4427 30.7152 60.4133 31.8419C60.384 32.9685 60.237 33.5911 59.2674 33.7393C57.5337 33.7097 55.8001 33.7097 54.037 33.7393Z"/>
<path d="M296.483 13.6084C296.483 11.8592 296.043 11.4145 294.309 11.4145C288.197 11.4145 282.056 11.3848 275.944 11.4441C274.681 11.4441 274.122 11.118 274.269 9.78382C274.357 8.80544 274.269 7.79741 274.299 6.81903C274.328 5.63311 273.74 5.0698 272.624 5.04015C271.36 5.01051 270.067 5.04015 268.804 5.04015C267.452 5.04015 266.894 5.69241 266.923 7.08586C266.953 8.98333 266.953 10.9104 266.953 12.8079C266.923 12.9562 266.923 13.134 266.923 13.3416C266.923 21.9691 266.923 30.6263 266.923 39.2539C266.923 40.6473 267.57 41.2403 268.921 41.181C269.862 41.1513 270.773 41.181 271.713 41.181C274.122 41.181 274.328 40.9734 274.328 38.6016C274.328 35.6072 274.328 32.5831 274.328 29.5886C274.328 26.446 274.328 23.3329 274.299 20.1902C274.299 20.1606 274.299 20.1606 274.299 20.1606C274.357 19.2415 274.769 18.8857 275.885 18.9154C279.705 18.9747 283.525 19.0043 287.345 18.9154C288.55 18.8857 289.02 19.2119 289.137 20.1606C289.137 22.5621 289.137 24.9636 289.137 27.365C289.137 31.2489 289.137 35.1032 289.137 38.987C289.137 40.8549 289.431 41.181 291.224 41.181C292.164 41.181 293.075 41.181 294.015 41.181C296.19 41.181 296.483 40.8845 296.483 38.7499C296.483 35.6961 296.483 32.6424 296.483 29.5886H296.513C296.483 24.252 296.513 18.9154 296.483 13.6084Z"/>
<path d="M56.564 44.6201C56.564 45.5985 56.564 45.7171 56.5346 46.6955C56.417 47.4367 55.9469 47.8518 55.1829 47.9407C55.0948 47.9704 54.9772 47.9704 54.8891 47.9704C53.6256 48 52.3327 47.9704 51.0692 47.9704C50.8929 47.9704 50.7166 47.9704 50.5696 47.9407C49.5706 47.7925 49.1592 47.1402 49.1886 45.9543C49.1886 44.9759 49.218 44.8573 49.218 43.8789C49.3355 43.1377 49.8057 42.7227 50.5696 42.6337H55.1829C56.1526 42.7523 56.564 43.4046 56.564 44.6201Z"/>
<path d="M219.057 7.11549C218.352 7.7974 218.293 7.88634 217.588 8.56824C216.971 9.01296 216.354 8.95367 215.736 8.4793C215.648 8.42 215.59 8.36071 215.501 8.30141C214.59 7.41197 212.651 5.45521 211.77 4.53612C211.652 4.41753 211.535 4.26929 211.446 4.1507C210.859 3.35021 211.035 2.57936 211.858 1.74922C212.563 1.06732 212.622 0.978373 213.327 0.29647C213.944 -0.148249 214.561 -0.088953 215.178 0.385414L219.468 4.71401C220.056 5.51451 219.88 6.28535 219.057 7.11549Z"/>
<path d="M59.2672 3.79494L53.126 2.13466C52.9791 2.10501 52.8616 2.10501 52.7146 2.10501C52.5971 2.10501 52.4502 2.10501 52.3033 2.13466L46.162 3.79494C45.2511 4.21001 45.0161 4.95121 45.3393 6.07783C45.6037 7.02657 45.6331 7.11551 45.8976 8.09389C46.2208 8.77579 46.7497 9.04263 47.5431 8.95368C47.6312 8.95368 47.7194 8.92404 47.8369 8.89439C48.9241 8.62756 51.3336 7.94565 52.744 7.56023C54.1251 7.94565 56.5345 8.62756 57.6511 8.89439C57.7393 8.92404 57.8568 8.92404 57.945 8.95368C58.7089 9.07228 59.2672 8.77579 59.5905 8.09389C59.8549 7.14516 59.8843 7.02657 60.1488 6.07783C60.4132 4.95121 60.1781 4.21001 59.2672 3.79494Z"/>
<path d="M435.381 35.5479C435.381 34.9846 435.381 34.5398 435.322 34.1841C435.322 32.4348 435.322 30.656 435.322 28.9067C435.322 28.4027 435.293 27.9876 435.205 27.6615C435.205 26.357 435.205 25.0821 435.205 23.7776C435.205 21.7616 434.882 21.4058 432.942 21.4058C429.945 21.4058 426.977 21.4058 423.98 21.4058C422.1 21.4058 421.718 21.7616 421.718 23.6294C421.718 24.756 421.718 25.9123 421.718 27.0389C421.718 28.2545 422.305 28.8771 423.51 28.8771C424.538 28.8771 425.567 28.9067 426.595 28.8474C427.565 28.7881 427.859 29.2329 427.859 30.1816C427.859 30.8635 427.859 31.575 427.829 32.2569C427.653 32.672 427.271 32.7906 426.625 32.7906C422.658 32.761 418.691 32.7313 414.724 32.7906C414.254 32.7906 413.931 32.7313 413.696 32.6127C413.402 32.3755 413.284 31.9605 413.284 31.2786C413.343 27.4243 413.373 23.5701 413.284 19.7159C413.255 18.2631 413.725 17.848 415.136 17.8777C421.159 17.937 427.183 17.9073 433.207 17.9073C435.058 17.9073 435.381 17.6109 435.381 15.8023C435.381 14.8536 435.381 13.9345 435.381 12.9858C435.381 10.7918 435.087 10.4954 432.972 10.4954C428.858 10.4954 424.744 10.4954 420.63 10.4954C416.37 10.4954 412.109 10.4954 407.848 10.4954C407.672 10.4954 407.496 10.4954 407.319 10.525C406.291 10.5843 405.792 11.1773 405.792 12.3039C405.792 20.9907 405.792 29.6776 405.792 38.3941C405.792 39.1649 406.027 39.6689 406.438 39.9358C406.732 40.2026 407.173 40.3508 407.79 40.3508C414.489 40.3508 421.159 40.3508 427.859 40.3508C429.739 40.3508 431.62 40.3508 433.501 40.3508C434.411 40.3508 434.97 40.084 435.234 39.491C435.381 39.1946 435.41 38.8091 435.41 38.3644C435.352 37.4157 435.381 36.467 435.381 35.5479Z"/>
</symbol>
<symbol id="icon-box" viewBox="0 0 16 19">
<path d="M15.92 3.5812C15.84 3.48938 15.76 3.39755 15.68 3.39755L8.56 0.0919383C8.16 0.000115629 7.76 0.000115629 7.44 0.0919383L0.32 3.39755C0.24 3.39755 0.16 3.48938 0.08 3.5812C0 3.67302 0 3.85667 0 3.94849V13.8653C0 14.049 0.08 14.3244 0.16 14.5081C0.24 14.6917 0.4 14.8754 0.64 14.9672L7.84 18.2728C7.92 18.3646 8.08 18.3646 8.24 18.2728L15.44 14.9672C15.6 14.8754 15.76 14.6917 15.92 14.5081C16 14.3244 16.08 14.049 16.08 13.8653V3.94849C16 3.85667 15.92 3.67302 15.92 3.5812ZM8 6.70317L5.6 5.6013L4.24 5.05036L1.84 3.94849L5.52 2.29568L7.76 1.28563H7.84C7.92 1.28563 8 1.28563 8.08 1.28563H8.16L10.4 2.20386L14.16 3.94849L8 6.70317ZM14.96 13.8653L8.48 16.8037V7.71322L14.96 4.77489V13.8653Z" />
</symbol>
<symbol id="icon-ribbon" viewBox="0 0 494 225">
<path d="M419.769 177.114L80.8005 225V122.012L419.769 74.1254V177.114Z" fill="#FFCA25"/>
<path d="M460.497 68.2216L35.4734 127.915V59.6939L460.497 0V68.2216Z" fill="#E8E8E8"/>
<path d="M3.61303 123.324C5.60845 123.324 7.22606 121.708 7.22606 119.716C7.22606 117.723 5.60845 116.108 3.61303 116.108C1.61761 116.108 0 117.723 0 119.716C0 121.708 1.61761 123.324 3.61303 123.324Z" fill="#FFC801"/>
<path d="M39.0864 170.554C41.0818 170.554 42.6995 168.939 42.6995 166.946C42.6995 164.953 41.0818 163.338 39.0864 163.338C37.091 163.338 35.4734 164.953 35.4734 166.946C35.4734 168.939 37.091 170.554 39.0864 170.554Z" fill="#FFC801"/>
<path d="M446.374 156.778C448.369 156.778 449.987 155.163 449.987 153.171C449.987 151.178 448.369 149.563 446.374 149.563C444.378 149.563 442.761 151.178 442.761 153.171C442.761 155.163 444.378 156.778 446.374 156.778Z" fill="#FFC801"/>
<path d="M490.387 109.548C492.382 109.548 494 107.933 494 105.94C494 103.948 492.382 102.332 490.387 102.332C488.392 102.332 486.774 103.948 486.774 105.94C486.774 107.933 488.392 109.548 490.387 109.548Z" fill="#FFC801"/>
</symbol>
<symbol id="icon-product" viewBox="0 0 70 76">
<path d="M35.0294 0.0053515C36.4165 -0.0142437 37.6473 0.358065 38.839 0.94592C48.1189 5.60957 57.3989 10.2536 66.6983 14.8977C67.4212 15.2504 67.9878 15.7011 67.9878 16.5633C67.9878 17.4255 67.4212 17.8762 66.6983 18.2485C57.3793 22.9121 48.0603 27.5954 38.7413 32.2786C36.2797 33.5131 33.8376 33.5327 31.3565 32.2982C21.9984 27.5954 12.6403 22.9121 3.28222 18.2289C2.59844 17.8762 2.07095 17.4255 2.05141 16.6221C2.03187 15.7599 2.5789 15.2896 3.30176 14.9369C12.5622 10.3124 21.8226 5.66836 31.0829 1.0243C32.3333 0.37766 33.6618 -0.053434 35.0294 0.0053515Z" fill="#FFCB42"/>
<path d="M32.4895 57.9483C32.4895 63.1803 32.4895 68.3926 32.4895 73.6245C32.4895 75.6428 31.4736 76.309 29.6762 75.4664C21.1973 71.5474 12.6989 67.6284 4.23946 63.6897C1.44572 62.3769 0 60.1038 0 56.9882C0 47.0338 0 37.0795 0 27.1251C0 25.342 1.09406 24.6169 2.69606 25.3616C11.5853 29.4765 20.4745 33.5915 29.3832 37.7065C31.4932 38.6863 32.5091 40.3127 32.5091 42.6641C32.4505 47.7588 32.4895 52.8536 32.4895 57.9483Z" fill="#FFCB42"/>
<path d="M37.5105 58.0462C37.5105 52.9123 37.53 47.798 37.5105 42.664C37.491 40.2734 38.5655 38.647 40.7145 37.6673C49.5256 33.6111 58.3366 29.5353 67.1281 25.4595C68.9841 24.5973 70 25.2439 70 27.3014C70 37.1382 69.9805 46.9554 70 56.7922C70 60.1233 68.4957 62.4356 65.5066 63.8268C57.1058 67.7067 48.7246 71.5865 40.3238 75.486C39.6986 75.7799 39.0734 76.0542 38.3701 75.6623C37.6668 75.2508 37.491 74.6238 37.491 73.84C37.5105 68.5689 37.5105 63.2978 37.5105 58.0462Z" fill="#FFCB42"/>
</symbol>
<symbol id="icon-logic" viewBox="0 0 87 76">
<path d="M41.6719 11.0085H41.5838C41.5838 10.3921 41.5838 9.75359 41.5838 9.13713C41.5617 4.38163 38.1919 0.726937 33.2362 0.0664498C29.1174 -0.483956 24.6683 2.66436 23.545 6.9135C23.4349 7.3318 23.3468 7.75011 23.2146 8.23447C22.1134 7.7281 21.0562 7.24374 19.8888 7.06761C16.3427 6.56124 13.7437 8.25648 11.5853 10.8104C9.77919 12.9239 8.92021 15.3457 9.55894 18.1418C9.71312 18.8243 9.20653 18.8243 8.81008 18.9564C5.55033 20.0792 3.36983 22.2368 2.55489 25.6053C1.91615 28.2692 2.37869 30.7791 4.05261 33.0027C4.47109 33.5531 4.42704 33.7513 3.85438 34.1696C1.03514 36.151 -0.264352 38.9471 0.0219768 42.3156C0.308306 45.9042 2.26856 48.4581 5.66046 49.7571C6.54147 50.0873 6.21109 50.4396 5.94679 50.9459C2.95134 56.7142 6.7397 63.6713 13.2151 64.2437C13.8979 64.3098 14.0301 64.552 14.1182 65.1464C14.5367 68.5149 16.1886 71.0688 19.2721 72.5659C21.0562 73.4245 22.9724 73.7327 24.9326 73.2704C25.6154 73.1163 26.0559 73.3144 26.5845 73.7547C29.4478 76.1325 32.6635 76.5948 36.0554 75.1418C39.4913 73.6667 41.3415 70.9147 41.5397 67.1719C41.6719 64.8162 41.5617 62.4384 41.5617 60.0607C41.5617 52.7293 41.5617 45.3758 41.5617 38.0444H41.6498V11.0085H41.6719Z" fill="#EDE7D3"/>
<path d="M38.302 54.8203C37.9276 54.8203 37.5531 54.8643 37.2007 54.8203C35.6369 54.5781 34.4476 55.0845 33.4784 56.3394C33.104 56.8238 32.9719 57.176 33.0379 57.7925C33.3683 60.8087 31.0336 63.4947 28.0822 63.6488C25.0427 63.8029 22.4658 61.3151 22.4878 58.2768C22.5319 55.2826 25.0868 52.9049 28.1263 53.081C28.721 53.103 29.3377 53.1911 29.8222 53.5213C30.6812 54.0938 31.2759 53.8516 31.8045 53.081C32.8397 51.6059 34.2493 51.0996 36.0554 51.2757C37.6633 51.4298 39.2711 51.3417 40.901 51.2977C41.6278 51.2757 41.9141 51.4298 41.9141 52.2444C41.8921 54.8643 41.9362 54.8643 39.2931 54.8643C38.9627 54.8203 38.6324 54.8203 38.302 54.8203Z" fill="#FFCA25"/>
<path d="M83.1235 34.1692C82.5508 33.7729 82.5288 33.5527 82.9252 33.0023C84.5771 30.7787 85.0617 28.2689 84.4229 25.6049C83.608 22.2364 81.4495 20.0568 78.1678 18.956C77.7713 18.8239 77.2647 18.8239 77.4189 18.1414C78.0797 15.3453 77.1986 12.9235 75.3926 10.81C73.2341 8.25611 70.6351 6.56086 67.089 7.06723C65.9217 7.24336 64.8645 7.72772 63.7632 8.23409C63.6531 7.77175 63.565 7.33143 63.4328 6.91312C62.3316 2.64197 57.8824 -0.48433 53.7637 0.0660759C48.83 0.726563 45.4381 4.38126 45.4161 9.13676C45.3941 13.8042 45.4161 18.4496 45.4161 23.1171C45.8126 23.5574 46.3412 23.4913 46.8478 23.4693C47.905 23.4253 48.9622 23.2492 49.9974 23.029C53.4774 22.2804 56.0764 20.3871 57.5961 17.1287C57.9265 16.4241 58.2128 15.7196 58.4992 15.0151C58.8295 14.2005 59.3361 14.1565 60.6576 14.5968C61.4505 14.861 61.2964 15.3453 61.1202 15.8957C60.4154 18.0753 59.4462 20.1008 57.8164 21.7741C56.8693 22.7428 56.8913 23.2271 57.7723 24.2179C59.1379 25.759 60.9219 26.4195 62.8822 26.7938C64.468 27.102 64.5121 27.1901 64.424 28.8193C64.4019 29.5018 64.1817 29.832 63.4328 29.7219C60.129 29.2816 57.1776 28.1588 55.0632 25.4067C54.5566 24.7463 54.006 24.6142 53.2571 24.9444C51.1427 25.8691 48.8961 26.1333 46.6055 26.2874C46.165 26.3094 45.7245 26.2874 45.3941 26.6617C45.3941 37.8019 45.3941 48.9641 45.3941 60.1043C45.3941 62.4821 45.284 64.8598 45.4161 67.2156C45.6143 70.9363 47.4645 73.7103 50.9004 75.1854C54.2703 76.6385 57.508 76.1762 60.3713 73.7984C60.8999 73.3581 61.3404 73.1379 62.0232 73.314C63.9835 73.7764 65.8997 73.4682 67.6837 72.6095C70.7673 71.1124 72.4192 68.5585 72.8376 65.1901C72.9037 64.5736 73.0359 64.3314 73.7407 64.2874C80.2161 63.715 84.0265 56.7579 81.009 50.9896C80.7447 50.4832 80.4143 50.131 81.2954 49.8007C84.6873 48.5018 86.6475 45.9479 86.9338 42.3592C87.2202 38.9467 85.9427 36.1286 83.1235 34.1692ZM70.1946 60.1484C70.0845 60.1704 69.9964 60.2364 69.8862 60.2804C69.2255 60.5226 68.5647 60.9409 67.926 60.9189C67.2432 60.8969 67.1331 59.9722 66.6926 59.4879C65.0627 57.6825 63.0143 57.0661 60.6576 57.2422C59.5123 57.3303 59.9749 58.1008 59.9308 58.4531C59.8427 60.2584 59.6224 61.7996 59.0938 63.2967C58.9176 63.803 58.7414 64.0232 58.1688 63.715C57.464 63.3187 56.583 63.1426 56.0323 62.6142C55.3495 61.9537 56.1204 61.1171 56.2305 60.3905C56.8693 56.1854 55.1073 53.1472 51.6933 50.9015C51.0326 50.4612 50.7903 50.153 51.3409 49.4925C51.5612 49.2503 51.6713 48.9201 51.8475 48.6559C52.6845 47.2468 52.6845 47.2468 54.05 48.2376C55.8781 49.5585 57.486 51.1217 58.4992 53.1692C58.8295 53.8737 59.204 54.0058 59.9528 53.8737C64.2257 53.1032 68.5647 55.2387 70.6131 59.0035C70.9655 59.642 70.8994 59.9722 70.1946 60.1484ZM80.6566 43.0417C79.8857 45.3534 79.9298 45.3534 77.7052 44.3627C76.6921 43.9224 75.7229 43.394 74.886 42.6895C74.3794 42.2492 73.983 42.2051 73.3662 42.5354C70.525 44.1205 67.6176 43.9444 64.7103 42.6895C63.9174 42.3592 63.8293 42.007 64.3579 41.3465C64.8204 40.7741 65.0627 39.9815 65.6354 39.5852C66.2961 39.1229 66.9569 39.9375 67.6617 40.0255C68.807 40.1576 69.9083 40.2237 71.0316 39.8054C71.6703 39.5632 71.7804 39.321 71.428 38.7045C70.2166 36.547 69.7981 34.1692 69.9303 31.7254C70.0184 30.3164 70.0404 30.3164 71.406 30.6026C71.6483 30.6466 71.9126 30.7347 72.1549 30.7567C73.168 30.8448 73.8728 31.175 73.4323 32.2098C73.3662 36.635 75.6348 39.8494 79.9298 41.4566C80.8328 41.7868 80.965 42.1831 80.6566 43.0417Z" fill="#FFCA25"/>
<path d="M40.7248 42.4692C35.747 42.5133 30.7473 42.6013 25.7696 42.4472C23.7653 42.3812 22.2015 42.7995 21.0562 44.4507C20.6157 45.0892 20.1531 45.1112 19.4043 44.7589C17.1577 43.6801 14.6248 44.3406 13.083 46.278C11.6514 48.0613 11.5633 50.7253 12.8627 52.5306C14.3384 54.5781 16.7833 55.3487 19.0959 54.4901C21.3205 53.6535 22.7081 51.4298 22.5319 49.0301C22.4217 47.7531 24.0076 46.0359 25.3071 46.0359C27.906 46.0359 30.505 46.0359 33.126 46.0359C35.2625 46.0359 37.3769 46.0359 39.5134 46.0359C41.9582 46.0359 41.8921 46.0359 41.9802 43.5921C41.9362 42.5793 41.5838 42.4692 40.7248 42.4692ZM17.2458 51.2977C16.2546 51.3197 15.4177 50.4831 15.4617 49.4924C15.4838 48.5457 16.2767 47.7751 17.2458 47.7751C18.1929 47.7751 18.9858 48.5677 18.9858 49.5144C18.9858 50.4611 18.1929 51.2757 17.2458 51.2977Z" fill="#FFCA25"/>
<path d="M27.8179 60.1044C26.8709 60.1264 26.0559 59.3558 26.0339 58.4091C25.9898 57.4184 26.8268 56.5818 27.8179 56.5818C28.765 56.6038 29.5579 57.3964 29.5579 58.3431C29.5579 59.2898 28.765 60.0824 27.8179 60.1044Z" fill="#D6DAE0"/>
<path d="M40.8349 31.9015C37.9056 31.9455 34.9542 31.9015 32.0248 31.9235C31.32 31.9235 30.9456 31.7473 30.5932 31.0869C29.5139 29.0614 27.1572 28.0046 25.0208 28.4669C22.5319 29.0173 20.7919 31.0648 20.7478 33.5086C20.7038 35.9524 22.2896 38.066 24.6463 38.7485C27.0471 39.431 29.4478 38.3962 30.6813 36.1286C30.9676 35.6002 31.2759 35.402 31.8706 35.4241C33.3684 35.4681 34.8881 35.4461 36.3858 35.4461C37.377 35.4461 38.3681 35.4461 39.3592 35.4461C41.9362 35.4461 41.8921 35.4461 41.9362 32.8922C41.9362 32.0115 41.6058 31.9015 40.8349 31.9015ZM26.078 35.4461C25.1309 35.4681 24.3159 34.6975 24.2719 33.7508C24.2278 32.7601 25.0428 31.9235 26.0339 31.9235C26.981 31.9235 27.7739 32.7161 27.7739 33.6628C27.7959 34.6095 27.0251 35.4241 26.078 35.4461Z" fill="#FFCA25"/>
<path d="M40.901 23.117C38.5223 23.5794 36.7823 22.6327 35.3286 20.8053C34.822 20.1668 34.4916 19.7265 34.7339 18.8239C35.2845 16.7543 34.0952 14.3105 32.1569 13.2317C30.0866 12.0649 27.5536 12.4171 25.8797 14.0904C24.2058 15.7416 23.8093 18.1854 24.8666 20.2549C25.9017 22.2804 28.3906 23.6894 30.461 23.0069C31.9147 22.5226 32.7736 22.8969 33.5886 23.9756C33.8088 24.2619 34.1392 24.482 34.3595 24.7682C35.5488 26.3094 36.9805 27.168 39.0068 26.6616C39.1169 26.6616 39.2271 26.6616 39.3372 26.6616C41.9802 26.6616 41.9362 26.6616 41.9582 24.0417C41.9142 23.2271 41.6058 22.9849 40.901 23.117ZM29.5139 19.5944C28.5668 19.5724 27.7959 18.7578 27.7959 17.8331C27.7959 16.8424 28.6549 16.0278 29.6461 16.0938C30.5931 16.1379 31.342 16.9745 31.32 17.9212C31.2759 18.8459 30.461 19.6164 29.5139 19.5944Z" fill="#FFCA25"/>
</symbol>
<symbol id="icon-health" viewBox="0 0 99 66">
<path d="M80.4051 33.0617C80.4051 41.6203 80.4051 50.1995 80.4051 58.7581C80.4051 63.2843 77.6925 65.9794 73.137 65.9588C71.584 65.9588 70.031 66.0823 68.4779 65.8559C65.1441 65.3828 62.7628 62.7082 62.7628 59.3547C62.7421 53.1209 62.7421 46.8871 62.7835 40.6328C62.7835 39.7481 62.535 39.6041 61.7067 39.6041C54.832 39.6452 47.978 39.6246 41.1033 39.6246C39.6745 39.6246 38.7427 38.9869 38.5357 37.8965C38.2458 36.4152 39.2397 35.2425 40.8755 35.2219C43.4639 35.2013 46.0523 35.2219 48.6407 35.2219C53.0512 35.2219 57.4825 35.2013 61.8931 35.2425C62.6179 35.2425 62.8456 35.0573 62.7835 34.3372C62.7214 33.4526 62.7214 32.5473 62.7835 31.6627C62.8249 30.9837 62.5971 30.8192 61.9345 30.8192C54.9563 30.8397 47.9987 30.8397 41.0205 30.8397C39.5503 30.8397 38.6392 30.1402 38.5149 28.947C38.3493 27.4657 39.3018 26.4781 40.9584 26.4781C46.0316 26.4576 51.1048 26.4781 56.178 26.4781C58.0416 26.4781 59.9052 26.437 61.7689 26.4987C62.5764 26.5193 62.8042 26.3136 62.7835 25.4906C62.7421 19.4214 62.7628 13.3522 62.7628 7.283C62.7628 2.81854 65.4754 0.123402 69.9688 0.123402C71.1698 0.123402 72.3915 0.102828 73.5925 0.123402C77.6304 0.164549 80.4051 2.88026 80.4051 6.91268C80.4258 14.9364 80.4051 22.9601 80.4051 30.9838C80.4051 31.6833 80.4051 32.3828 80.4051 33.0617Z" fill="#FFCB42"/>
<path d="M18.5949 33C18.5949 24.318 18.5949 15.6565 18.5949 6.97444C18.5949 3.60037 20.4999 0.987531 23.6474 0.370324C26.1115 -0.123441 28.6791 -0.123441 31.1433 0.370324C34.2907 0.987531 36.2165 3.64152 36.2165 6.97444C36.2165 21.3142 36.2165 35.6334 36.2165 49.9732C36.2165 53.0181 36.2165 56.0835 36.2165 59.1284C36.1958 63.0991 33.421 65.9177 29.4039 65.9794C28.0579 66 26.712 66 25.366 65.9794C21.3489 65.8971 18.5741 63.1403 18.5741 59.1284C18.5534 52.1334 18.5741 45.1384 18.5741 38.1434C18.5949 36.4358 18.5949 34.7076 18.5949 33Z" fill="#FFCB42"/>
<path d="M7.51665 32.9999C7.51665 28.6795 7.49594 24.359 7.51665 20.0592C7.55806 16.2325 10.3949 13.3316 13.9979 13.311C15.3232 13.311 16.2964 14.1546 16.3585 15.3684C16.4206 16.5822 15.5302 17.5286 14.205 17.6726C12.6934 17.8372 11.9686 18.5779 11.9686 20.0592C11.9686 28.7001 11.9686 37.3204 11.9686 45.9613C11.9686 47.4837 12.6106 48.1627 14.1843 48.3684C15.6338 48.5741 16.5242 49.6028 16.3585 50.8578C16.1929 52.1334 15.054 52.9151 13.6252 52.7506C10.0015 52.3597 7.55806 49.644 7.51665 45.9407C7.49594 41.6408 7.51665 37.3204 7.51665 32.9999Z" fill="#FFCB42"/>
<path d="M91.4834 33.1233C91.4834 37.4027 91.5041 41.682 91.4834 45.9613C91.4627 49.6645 88.9986 52.3802 85.3749 52.7711C83.9461 52.9357 82.8279 52.1539 82.6416 50.8783C82.4759 49.6234 83.3663 48.5947 84.8158 48.3889C86.4102 48.1626 87.0314 47.4837 87.0314 45.879C87.0314 37.3409 87.0314 28.8235 87.0314 20.2854C87.0314 18.5573 86.4102 17.8989 84.6916 17.6726C83.4491 17.508 82.5794 16.5411 82.6416 15.3684C82.7037 14.1957 83.6355 13.3316 84.8986 13.311C88.5016 13.2493 91.442 16.2119 91.4834 20.0591C91.5041 24.4207 91.4834 28.7618 91.4834 33.1233Z" fill="#FFCB42"/>
<path d="M0 33.0412C0.0414139 30.8398 0.786865 28.9059 2.33989 27.3011C3.29241 26.293 4.63836 26.1902 5.57017 27.0131C6.50199 27.836 6.52269 29.1527 5.6323 30.2226C4.01715 32.1565 4.01715 33.9464 5.61159 35.8392C6.52269 36.909 6.50199 38.2051 5.57017 39.0486C4.61765 39.9127 3.35453 39.8304 2.36059 38.8017C0.807572 37.197 0.0621209 35.2837 0 33.0412Z" fill="#FFCB42"/>
<path d="M99 33.103C98.9379 35.3455 98.1511 37.3 96.5566 38.9047C95.6041 39.8511 94.341 39.8922 93.4092 39.0487C92.5188 38.2258 92.4981 36.9297 93.347 35.9215C95.0036 33.9465 95.0036 32.2183 93.3677 30.2432C92.4773 29.1734 92.5395 27.8567 93.4713 27.0338C94.3824 26.2314 95.6869 26.3343 96.6187 27.2806C98.1925 28.8854 98.9586 30.8399 99 33.103Z" fill="#FFCB42"/>
</symbol>
<symbol id="icon-rocket" viewBox="0 0 74 74">
<path d="M53.5766 24.1344C53.5621 26.1517 51.8928 27.8061 49.8752 27.8061C47.872 27.7916 46.1882 26.0936 46.2027 24.0909C46.2172 22.0736 47.8865 20.4192 49.9042 20.4337C51.9364 20.4482 53.5911 22.1172 53.5766 24.1344Z" fill="#FFCB42"/>
<path d="M3.41116 72.3747C2.68539 72.3311 2.11928 72.0118 1.79994 71.3443C1.46609 70.6331 1.59673 69.9656 2.11928 69.3996C2.56926 68.9061 3.06279 68.4417 3.5418 67.9628C5.63203 65.873 7.70775 63.7832 9.79798 61.7224C10.8866 60.6339 12.5124 61.0403 12.8753 62.4625C13.0349 63.1011 12.8462 63.6671 12.3963 64.117C9.8125 66.6857 7.22874 69.2689 4.64498 71.8377C4.31112 72.186 3.89018 72.3456 3.41116 72.3747Z" fill="#FFCB42"/>
<path d="M12.672 73.4049C11.9898 73.3759 11.4382 73.1002 11.1044 72.5052C10.7705 71.9247 10.785 71.3006 11.1334 70.7201C11.1915 70.6185 11.264 70.5169 11.3511 70.4299C13.9639 67.8176 16.5622 65.1908 19.1895 62.593C19.9153 61.8819 20.9749 61.9545 21.6571 62.6511C22.2958 63.3187 22.3539 64.3781 21.6717 65.0747C19.0734 67.7015 16.4606 70.3138 13.8478 72.926C13.5139 73.2308 13.1075 73.3759 12.672 73.4049Z" fill="#FFCB42"/>
<path d="M2.55474 63.1301C1.64026 63.1156 1.1177 62.7818 0.798362 62.1577C0.479021 61.5192 0.537083 60.8806 0.972548 60.3291C1.21931 60.0099 1.52414 59.7341 1.81445 59.4439C4.13693 57.1218 6.44489 54.7853 8.78188 52.4778C9.87055 51.4038 11.4963 51.8392 11.8447 53.2615C12.0043 53.9 11.7866 54.466 11.3366 54.9159C8.78188 57.4846 6.21264 60.0389 3.65791 62.6076C3.30954 62.9414 2.88859 63.1446 2.55474 63.1301Z" fill="#FFCB42"/>
<path d="M53.5766 24.1344C53.5621 26.1517 51.8928 27.8061 49.8752 27.8061C47.872 27.7916 46.1882 26.0936 46.2027 24.0909C46.2172 22.0736 47.8865 20.4192 49.9042 20.4337C51.9364 20.4482 53.5911 22.1172 53.5766 24.1344Z" fill="#FEFEFE"/>
<path d="M71.2567 0.0579587C64.8844 1.17543 58.7588 3.10562 52.8075 5.64533C45.0852 8.9397 38.0017 13.2354 31.7455 18.8664C30.7439 19.7661 29.902 20.9417 28.5085 20.4047C25.2716 20.4773 22.3249 20.9852 19.4509 21.8414C12.2802 23.9748 6.22723 27.9658 0.914561 33.1613C-0.478927 34.54 -0.27571 36.0348 1.45163 36.9781C5.22566 39.0825 8.98518 41.1868 12.7737 43.2621C13.2237 43.5088 13.3108 43.6975 13.035 44.1329C12.7011 44.6408 12.4399 45.1778 12.1641 45.7148C11.6851 46.6581 11.7867 47.5724 12.527 48.3125C16.9106 52.7099 21.3088 57.1072 25.7215 61.49C26.4473 62.2011 27.3473 62.3172 28.2618 61.8673C28.7988 61.6061 29.3504 61.3449 29.844 60.9966C30.352 60.6338 30.5552 60.8369 30.802 61.2868C32.8922 65.0601 34.9824 68.8334 37.0872 72.6067C38.0017 74.2466 39.5113 74.4353 40.8322 73.1146C43.1982 70.72 45.3465 68.1368 47.1755 65.3068C51.2833 58.9068 53.7655 52.0132 53.6058 44.3215C53.6058 43.9587 53.78 43.741 53.9977 43.5088C55.5074 41.9415 56.9299 40.287 58.2508 38.56C66.394 27.9222 71.4599 15.9203 73.9566 2.78634C74.3049 0.899692 73.1292 -0.275832 71.2567 0.0579587ZM25.5328 25.2809C21.8169 29.6202 18.638 34.3368 15.7639 39.2711C15.4591 39.7936 15.2559 39.8226 14.7478 39.5469C11.9899 37.9795 9.20291 36.4412 6.41593 34.8883C6.21272 34.7722 6.0095 34.6416 5.71919 34.4674C11.5399 29.3445 18.0574 25.8469 25.7651 24.802C25.8522 25.0487 25.649 25.1503 25.5328 25.2809ZM39.6274 68.1948C39.4242 68.1658 39.3806 68.0207 39.3226 67.8901C37.6823 64.944 36.0421 61.9834 34.3873 59.0519C34.1841 58.7036 34.1986 58.5439 34.5615 58.3408C39.6564 55.4092 44.5046 52.1148 48.9609 48.2835C49.0189 48.24 49.077 48.2254 49.2221 48.1529C48.177 55.9462 44.6643 62.4333 39.6274 68.1948ZM49.8608 32.0438C45.4917 32.0148 41.9499 28.4447 41.9644 24.0909C41.9789 19.7081 45.5352 16.196 49.9189 16.2105C54.3026 16.225 57.8153 19.7516 57.8008 24.149C57.7863 28.5318 54.23 32.0583 49.8608 32.0438ZM69.0939 5.3841C68.1939 9.08483 67.0907 12.7275 65.7553 16.225C63.0844 13.5547 60.4281 10.9134 57.7863 8.27212C61.3136 6.90793 64.9715 5.80497 68.6874 4.90518C69.21 4.78908 69.181 5.0358 69.0939 5.3841Z" fill="#FFCB42"/>
<path d="M53.5766 24.1344C53.5621 26.1517 51.8928 27.8061 49.8752 27.8061C47.872 27.7916 46.1882 26.0936 46.2027 24.0909C46.2172 22.0736 47.8865 20.4192 49.9042 20.4337C51.9364 20.4482 53.5911 22.1172 53.5766 24.1344Z" fill="#FFCB42"/>
</symbol>
<symbol id="icon-play" viewBox="0 0 16 17">
<path d="M1.50904 16.5527C1.70434 16.5527 1.88989 16.5185 2.06568 16.4502C2.24146 16.3819 2.427 16.2891 2.62232 16.1719L14.0091 9.58984C14.4192 9.34896 14.704 9.13575 14.8636 8.9502C15.023 8.76465 15.1028 8.54167 15.1028 8.28125C15.1028 8.02083 15.023 7.79785 14.8636 7.6123C14.704 7.42675 14.4192 7.21679 14.0091 6.98242L2.62232 0.390625C2.427 0.279948 2.24146 0.190429 2.06568 0.12207C1.88989 0.0537108 1.70434 0.0195312 1.50904 0.0195312C1.15096 0.0195312 0.86613 0.146485 0.654541 0.400391C0.442953 0.654297 0.337158 0.99284 0.337158 1.41602V15.1465C0.337158 15.5696 0.442953 15.9098 0.654541 16.167C0.86613 16.4241 1.15096 16.5527 1.50904 16.5527Z" fill-opacity="0.85"/>
</symbol>
<symbol id="icon-camera-circle" viewBox="0 0 21 21">
<path d="M10.3049 20.4556C11.6656 20.4556 12.9466 20.1952 14.1477 19.6743C15.3489 19.1535 16.4085 18.4341 17.3264 17.5161C18.2444 16.5982 18.9638 15.5386 19.4846 14.3374C20.0055 13.1363 20.2659 11.8553 20.2659 10.4946C20.2659 9.13395 20.0055 7.85302 19.4846 6.65185C18.9638 5.45068 18.2444 4.39111 17.3264 3.47314C16.4085 2.55517 15.3473 1.83577 14.1428 1.31494C12.9384 0.794108 11.6559 0.533691 10.2952 0.533691C8.93449 0.533691 7.65357 0.794108 6.45239 1.31494C5.25122 1.83577 4.19328 2.55517 3.27856 3.47314C2.36385 4.39111 1.64608 5.45068 1.12524 6.65185C0.604411 7.85302 0.343994 9.13395 0.343994 10.4946C0.343994 11.8553 0.604411 13.1363 1.12524 14.3374C1.64608 15.5386 2.36548 16.5982 3.28344 17.5161C4.20142 18.4341 5.26099 19.1535 6.46215 19.6743C7.66333 20.1952 8.94425 20.4556 10.3049 20.4556ZM10.3049 18.7954C9.15259 18.7954 8.07511 18.5806 7.07251 18.1509C6.06991 17.7212 5.18937 17.1272 4.4309 16.3687C3.67244 15.6102 3.08 14.7297 2.65356 13.7271C2.22713 12.7245 2.01391 11.647 2.01391 10.4946C2.01391 9.34229 2.22713 8.26481 2.65356 7.26221C3.08 6.2596 3.67082 5.37744 4.42602 4.61572C5.18123 3.854 6.06014 3.25992 7.06274 2.83349C8.06535 2.40706 9.14282 2.19385 10.2952 2.19385C11.4475 2.19385 12.525 2.40706 13.5276 2.83349C14.5302 3.25992 15.4124 3.854 16.1741 4.61572C16.9358 5.37744 17.5315 6.2596 17.9612 7.26221C18.3909 8.26481 18.6057 9.34229 18.6057 10.4946C18.6057 11.647 18.3925 12.7245 17.9661 13.7271C17.5396 14.7297 16.9472 15.6102 16.1887 16.3687C15.4302 17.1272 14.5481 17.7212 13.5422 18.1509C12.5364 18.5806 11.4573 18.7954 10.3049 18.7954ZM5.93969 14.9087H14.6604C15.1682 14.9087 15.5539 14.7817 15.8176 14.5278C16.0813 14.2739 16.2131 13.8931 16.2131 13.3853V8.21924C16.2131 7.70492 16.0813 7.3208 15.8176 7.06689C15.5539 6.81298 15.1682 6.68603 14.6604 6.68603H13.3909C13.2021 6.68603 13.0621 6.66324 12.971 6.61767C12.8798 6.5721 12.7789 6.48746 12.6682 6.36377L12.2678 5.91455C12.1441 5.78434 12.0091 5.68343 11.8626 5.61181C11.7161 5.5402 11.5191 5.50439 11.2717 5.50439H9.29907C9.04517 5.50439 8.84497 5.5402 8.69848 5.61181C8.552 5.68343 8.41691 5.78434 8.29321 5.91455L7.89282 6.36377C7.78214 6.48096 7.68286 6.56396 7.59497 6.61279C7.50708 6.66162 7.36548 6.68603 7.17016 6.68603H5.93969C5.42537 6.68603 5.038 6.81298 4.77758 7.06689C4.51717 7.3208 4.38696 7.70492 4.38696 8.21924V13.3853C4.38696 13.8931 4.51717 14.2739 4.77758 14.5278C5.038 14.7817 5.42537 14.9087 5.93969 14.9087ZM10.3147 13.6782C9.76782 13.6782 9.27303 13.548 8.83032 13.2876C8.38762 13.0272 8.03443 12.6756 7.77075 12.2329C7.50708 11.7902 7.37524 11.2954 7.37524 10.7485C7.37524 10.2082 7.50708 9.71663 7.77075 9.27392C8.03443 8.83121 8.38762 8.47965 8.83032 8.21924C9.27303 7.95882 9.76782 7.82861 10.3147 7.82861C10.855 7.82861 11.3449 7.95882 11.7844 8.21924C12.2239 8.47965 12.5754 8.83121 12.8391 9.27392C13.1028 9.71663 13.2346 10.2082 13.2346 10.7485C13.2346 11.3019 13.1028 11.8 12.8391 12.2427C12.5754 12.6854 12.2239 13.0353 11.7844 13.2925C11.3449 13.5496 10.855 13.6782 10.3147 13.6782ZM10.3049 12.8384C10.6825 12.8384 11.0292 12.7456 11.345 12.5601C11.6607 12.3745 11.913 12.1222 12.1018 11.8032C12.2906 11.4842 12.385 11.1326 12.385 10.7485C12.385 10.3644 12.2906 10.0145 12.1018 9.69873C11.913 9.38298 11.6607 9.13233 11.345 8.94678C11.0292 8.76123 10.6825 8.66846 10.3049 8.66846C9.92082 8.66846 9.56926 8.76123 9.25024 8.94678C8.93123 9.13233 8.67895 9.38298 8.4934 9.69873C8.30786 10.0145 8.21508 10.3644 8.21508 10.7485C8.21508 11.1326 8.30786 11.4842 8.4934 11.8032C8.67895 12.1222 8.93123 12.3745 9.25024 12.5601C9.56926 12.7456 9.92082 12.8384 10.3049 12.8384ZM14.2014 9.34228C14.0257 9.34228 13.8727 9.2788 13.7424 9.15185C13.6122 9.0249 13.5471 8.86702 13.5471 8.67822C13.5471 8.49593 13.6122 8.3413 13.7424 8.21435C13.8727 8.0874 14.0257 8.02392 14.2014 8.02392C14.3837 8.02392 14.54 8.0874 14.6702 8.21435C14.8004 8.3413 14.8655 8.49593 14.8655 8.67822C14.8655 8.86702 14.8004 9.0249 14.6702 9.15185C14.54 9.2788 14.3837 9.34228 14.2014 9.34228Z" fill-opacity="0.85"/>
</symbol>
<symbol id="icon-location" viewBox="0 0 24 24">
<path d="M12 20.9996C10.7369 19.9222 9.56619 18.7411 8.5 17.4686C6.9 15.5576 5 12.7116 5 9.9996C4.99931 8.61456 5.40951 7.26045 6.17869 6.10863C6.94788 4.95681 8.04147 4.05906 9.32107 3.529C10.6007 2.99894 12.0087 2.86039 13.3671 3.1309C14.7255 3.4014 15.9731 4.06879 16.952 5.0486C17.6038 5.69746 18.1203 6.46914 18.4719 7.31898C18.8234 8.16881 19.0029 9.07993 19 9.9996C19 12.7116 17.1 15.5576 15.5 17.4686C14.4338 18.7411 13.2631 19.9222 12 20.9996ZM12 6.9996C11.2044 6.9996 10.4413 7.31567 9.87868 7.87828C9.31607 8.44089 9 9.20395 9 9.9996C9 10.7953 9.31607 11.5583 9.87868 12.1209C10.4413 12.6835 11.2044 12.9996 12 12.9996C12.7957 12.9996 13.5587 12.6835 14.1213 12.1209C14.6839 11.5583 15 10.7953 15 9.9996C15 9.20395 14.6839 8.44089 14.1213 7.87828C13.5587 7.31567 12.7957 6.9996 12 6.9996Z" />
</symbol>
<symbol id="icon-email" viewBox="0 0 24 24">
<path d="M21.5533 4.00019C21.4625 3.99082 21.3709 3.99082 21.28 4.00019H2.61334C2.49371 4.00203 2.37486 4.01997 2.26001 4.05352L11.8933 13.6469L21.5533 4.00019Z" />
<path d="M22.54 4.92676L12.8333 14.5934C12.5835 14.8418 12.2455 14.9811 11.8933 14.9811C11.541 14.9811 11.2031 14.8418 10.9533 14.5934L1.33329 5.00009C1.30371 5.10878 1.28803 5.22079 1.28662 5.33342V18.6668C1.28662 19.0204 1.4271 19.3595 1.67715 19.6096C1.92719 19.8596 2.26633 20.0001 2.61995 20.0001H21.2866C21.6402 20.0001 21.9794 19.8596 22.2294 19.6096C22.4795 19.3595 22.62 19.0204 22.62 18.6668V5.33342C22.6146 5.19453 22.5877 5.05731 22.54 4.92676ZM3.53329 18.6668H2.60662V17.7134L7.45329 12.9068L8.39329 13.8468L3.53329 18.6668ZM21.2733 18.6668H20.34L15.48 13.8468L16.42 12.9068L21.2666 17.7134L21.2733 18.6668Z" />
</symbol>
<symbol id="icon-phone" viewBox="0 0 24 24">
<path d="M20.7563 5.39531L18.2602 2.90156C18.0841 2.72471 17.8748 2.58439 17.6443 2.48867C17.4139 2.39294 17.1667 2.34369 16.9172 2.34375C16.4086 2.34375 15.9305 2.54297 15.5719 2.90156L12.8859 5.5875C12.7091 5.76358 12.5688 5.97286 12.473 6.20333C12.3773 6.4338 12.3281 6.68091 12.3281 6.93047C12.3281 7.43906 12.5273 7.91719 12.8859 8.27578L14.85 10.2398C14.3903 11.2532 13.7511 12.175 12.9633 12.9609C12.1775 13.7506 11.2557 14.3922 10.2422 14.8547L8.27813 12.8906C8.10205 12.7138 7.89277 12.5735 7.6623 12.4777C7.43183 12.382 7.18472 12.3328 6.93516 12.3328C6.42656 12.3328 5.94844 12.532 5.58985 12.8906L2.90156 15.5742C2.7245 15.7506 2.58406 15.9603 2.48832 16.1912C2.39259 16.4221 2.34346 16.6696 2.34375 16.9195C2.34375 17.4281 2.54297 17.9062 2.90156 18.2648L5.39297 20.7562C5.96485 21.3305 6.75469 21.6562 7.56563 21.6562C7.73672 21.6562 7.90078 21.6422 8.0625 21.6141C11.2219 21.0938 14.3555 19.4133 16.8844 16.8867C19.4109 14.3625 21.0891 11.2312 21.6164 8.0625C21.7758 7.09453 21.4547 6.09844 20.7563 5.39531Z" />
</symbol>
<symbol id="icon-xmark" viewBox="0 0 21.5 21">
<path fill-rule="evenodd" clip-rule="evenodd" d="M14.7514 20.1074C13.5503 20.6283 12.2693 20.8887 10.9086 20.8887C9.54795 20.8887 8.26703 20.6283 7.06585 20.1074C5.86469 19.5866 4.80512 18.8672 3.88714 17.9492C2.96918 17.0313 2.24978 15.9717 1.72894 14.7705C1.20811 13.5694 0.947693 12.2885 0.947693 10.9278C0.947693 9.56709 1.20811 8.28616 1.72894 7.08499C2.24978 5.88382 2.96755 4.82425 3.88226 3.90628C4.79698 2.98831 5.85492 2.26891 7.05609 1.74808C8.25727 1.22724 9.53819 0.966827 10.8989 0.966827C12.2595 0.966827 13.5421 1.22724 14.7465 1.74808C15.951 2.26891 17.0122 2.98831 17.9301 3.90628C18.8481 4.82425 19.5675 5.88382 20.0883 7.08499C20.6092 8.28616 20.8696 9.56709 20.8696 10.9278C20.8696 12.2885 20.6092 13.5694 20.0883 14.7705C19.5675 15.9717 18.8481 17.0313 17.9301 17.9492C17.0122 18.8672 15.9526 19.5866 14.7514 20.1074ZM7.06097 14.79C7.21722 14.9496 7.40603 15.0293 7.62738 15.0293C7.86175 15.0293 8.06032 14.9512 8.22308 14.7949L10.9184 12.0801L13.6235 14.7949C13.7732 14.9512 13.9653 15.0293 14.1997 15.0293C14.4276 15.0293 14.6196 14.9496 14.7758 14.79C14.9321 14.6306 15.0102 14.4402 15.0102 14.2188C15.0102 13.9779 14.9321 13.7858 14.7758 13.6426L12.061 10.9375L14.7856 8.22268C14.9419 8.05992 15.02 7.86787 15.02 7.64651C15.02 7.42516 14.9419 7.23636 14.7856 7.0801C14.6293 6.92386 14.4405 6.84573 14.2192 6.84573C14.0043 6.84573 13.8188 6.92386 13.6625 7.0801L10.9184 9.80471L8.19378 7.08987C8.03102 6.94013 7.84222 6.86526 7.62738 6.86526C7.40603 6.86526 7.21722 6.94176 7.06097 7.09475C6.90472 7.24775 6.8266 7.43818 6.8266 7.66604C6.8266 7.88088 6.90472 8.06968 7.06097 8.23244L9.77581 10.9375L7.06097 13.6523C6.90472 13.8086 6.8266 13.9974 6.8266 14.2188C6.8266 14.4402 6.90472 14.6306 7.06097 14.79Z" />
</symbol>
<symbol id="icon-loading" viewBox="0 0 100 100">
<path opacity="0.0833333" d="M69.402 10.395L59.902 26.8494C59.0736 28.2843 59.5652 30.1191 61.0001 30.9475C62.4349 31.7759 64.2697 31.2843 65.0981 29.8494L74.5981 13.395C75.4266 11.9601 74.9349 10.1253 73.5001 9.29688C72.0652 8.46845 70.2304 8.96007 69.402 10.395Z"/>
<path opacity="0.166667" d="M86.6052 25.402L70.1507 34.902C68.7158 35.7304 68.2242 37.5652 69.0526 39.0001C69.881 40.4349 71.7158 40.9266 73.1507 40.0981L89.6052 30.5981C91.04 29.7697 91.5317 27.9349 90.7032 26.5001C89.8748 25.0652 88.04 24.5736 86.6052 25.402Z"/>
<path opacity="0.25" d="M94 47H75C73.3431 47 72 48.3431 72 50C72 51.6569 73.3431 53 75 53H94C95.6569 53 97 51.6569 97 50C97 48.3431 95.6569 47 94 47Z"/>
<path opacity="0.333333" d="M89.6052 69.402L73.1507 59.902C71.7158 59.0736 69.881 59.5652 69.0526 61.0001C68.2242 62.4349 68.7158 64.2697 70.1507 65.0981L86.6052 74.5981C88.04 75.4266 89.8748 74.9349 90.7032 73.5001C91.5317 72.0652 91.04 70.2304 89.6052 69.402Z"/>
<path opacity="0.416667" d="M74.598 86.6052L65.098 70.1507C64.2696 68.7158 62.4348 68.2242 60.9999 69.0526C59.5651 69.881 59.0734 71.7158 59.9019 73.1507L69.4019 89.6052C70.2303 91.04 72.0651 91.5317 73.4999 90.7032C74.9348 89.8748 75.4264 88.04 74.598 86.6052Z"/>
<path opacity="0.5" d="M53 94V75C53 73.3431 51.6569 72 50 72C48.3431 72 47 73.3431 47 75V94C47 95.6569 48.3431 97 50 97C51.6569 97 53 95.6569 53 94Z"/>
<path opacity="0.583333" d="M30.598 89.6052L40.098 73.1507C40.9264 71.7158 40.4348 69.881 38.9999 69.0526C37.5651 68.2242 35.7303 68.7158 34.9019 70.1507L25.4019 86.6052C24.5734 88.04 25.0651 89.8748 26.4999 90.7032C27.9348 91.5317 29.7696 91.04 30.598 89.6052Z"/>
<path opacity="0.666667" d="M13.3948 74.598L29.8493 65.098C31.2842 64.2696 31.7758 62.4348 30.9474 60.9999C30.119 59.5651 28.2842 59.0734 26.8493 59.9019L10.3948 69.4019C8.95995 70.2303 8.46833 72.0651 9.29675 73.4999C10.1252 74.9348 11.96 75.4264 13.3948 74.598Z"/>
<path opacity="0.75" d="M6 53H25C26.6569 53 28 51.6569 28 50C28 48.3431 26.6569 47 25 47H6C4.34315 47 3 48.3431 3 50C3 51.6569 4.34315 53 6 53Z"/>
<path opacity="0.833333" d="M10.3948 30.598L26.8493 40.098C28.2842 40.9264 30.119 40.4348 30.9474 38.9999C31.7758 37.5651 31.2842 35.7303 29.8493 34.9019L13.3948 25.4019C11.96 24.5734 10.1252 25.0651 9.29675 26.4999C8.46833 27.9348 8.95995 29.7696 10.3948 30.598Z"/>
<path opacity="0.916667" d="M25.402 13.3948L34.902 29.8493C35.7304 31.2842 37.5652 31.7758 39.0001 30.9474C40.4349 30.119 40.9266 28.2842 40.0981 26.8493L30.5981 10.3948C29.7697 8.95995 27.9349 8.46833 26.5001 9.29675C25.0652 10.1252 24.5736 11.96 25.402 13.3948Z"/>
</symbol>
<symbol id="icon-right" viewBox="0 0 11 18">
<path d="M10.4717 8.62298C10.4717 8.49929 10.4473 8.38373 10.3985 8.2763C10.3497 8.16888 10.2797 8.0696 10.1885 7.97845L2.45416 0.400329C2.27838 0.231059 2.06354 0.146423 1.80963 0.146423C1.64687 0.146423 1.49713 0.185486 1.36041 0.263611C1.22369 0.341736 1.11627 0.44753 1.03815 0.580993C0.960022 0.714457 0.920959 0.865825 0.920959 1.0351C0.920959 1.27598 1.00559 1.48757 1.17487 1.66986L8.28424 8.62298L1.17487 15.5761C1.00559 15.7584 0.920959 15.97 0.920959 16.2109C0.920959 16.3802 0.960022 16.5316 1.03815 16.665C1.11627 16.7985 1.22369 16.9043 1.36041 16.9823C1.49713 17.0605 1.64687 17.0995 1.80963 17.0995C2.06354 17.0995 2.27838 17.0117 2.45416 16.8359L10.1885 9.26751C10.2797 9.17637 10.3497 9.07709 10.3985 8.96966C10.4473 8.86224 10.4717 8.74668 10.4717 8.62298Z"  fill-opacity="0.85"/>
</symbol>
<symbol id="icon-left" viewBox="0 0 11 18">
<path d="M0.628815 8.62298C0.628815 8.74668 0.651601 8.86224 0.697174 8.96966C0.742747 9.07709 0.811107 9.17637 0.902253 9.26751L8.64639 16.8359C8.82218 17.0117 9.03376 17.0995 9.28115 17.0995C9.45043 17.0995 9.6018 17.0605 9.73526 16.9823C9.86872 16.9043 9.97614 16.7985 10.0575 16.665C10.1389 16.5316 10.1796 16.3802 10.1796 16.2109C10.1796 15.97 10.0917 15.7584 9.91593 15.5761L2.80654 8.62298L9.91593 1.66986C10.0917 1.48757 10.1796 1.27598 10.1796 1.0351C10.1796 0.865825 10.1389 0.714457 10.0575 0.580993C9.97614 0.44753 9.86872 0.341736 9.73526 0.263611C9.6018 0.185486 9.45043 0.146423 9.28115 0.146423C9.03376 0.146423 8.82218 0.231059 8.64639 0.400329L0.902253 7.97845C0.811107 8.0696 0.742747 8.16888 0.697174 8.2763C0.651601 8.38373 0.628815 8.49929 0.628815 8.62298Z"  fill-opacity="0.85"/>
</symbol>
<symbol id="icon-close" viewBox="0 0 19 18">
<path d="M1.23528 15.4277C1.35247 15.5384 1.48593 15.6133 1.63567 15.6523C1.78541 15.6914 1.93515 15.6914 2.08489 15.6523C2.23463 15.6133 2.36484 15.5384 2.47551 15.4277L8.72551 9.17775L14.9755 15.4277C15.0862 15.5384 15.2164 15.6133 15.3661 15.6523C15.5158 15.6914 15.6672 15.693 15.8202 15.6572C15.9732 15.6214 16.105 15.5449 16.2157 15.4277C16.3264 15.3171 16.3997 15.1869 16.4355 15.0371C16.4713 14.8874 16.4713 14.7377 16.4355 14.5879C16.3997 14.4382 16.3264 14.308 16.2157 14.1972L9.96575 7.93752L16.2157 1.68752C16.3264 1.57684 16.4013 1.44664 16.4404 1.2969C16.4795 1.14716 16.4795 0.997419 16.4404 0.847679C16.4013 0.69794 16.3264 0.567731 16.2157 0.457054C16.0986 0.339867 15.9651 0.263369 15.8154 0.227562C15.6656 0.191755 15.5158 0.191755 15.3661 0.227562C15.2164 0.263369 15.0862 0.339867 14.9755 0.457054L8.72551 6.70705L2.47551 0.457054C2.36484 0.339867 2.23301 0.263369 2.08001 0.227562C1.92702 0.191755 1.77565 0.191755 1.62591 0.227562C1.47617 0.263369 1.34596 0.339867 1.23528 0.457054C1.12461 0.567731 1.05136 0.69794 1.01556 0.847679C0.979749 0.997419 0.979749 1.14716 1.01556 1.2969C1.05136 1.44664 1.12461 1.57684 1.23528 1.68752L7.48528 7.93752L1.23528 14.1972C1.12461 14.308 1.04974 14.4382 1.01067 14.5879C0.971611 14.7377 0.969983 14.8874 1.00579 15.0371C1.0416 15.1869 1.1181 15.3171 1.23528 15.4277Z" />
</symbol>
<symbol id="icon-up" viewBox="0 0 21 21">
<path fill-rule="evenodd" clip-rule="evenodd" d="M14.6312 19.7265C13.4301 20.2474 12.1491 20.5078 10.7884 20.5078C9.42774 20.5078 8.14682 20.2474 6.94564 19.7265C5.74448 19.2057 4.68491 18.4863 3.76693 17.5683C2.84897 16.6504 2.12957 15.5908 1.60873 14.3896C1.0879 13.1885 0.827484 11.9076 0.827484 10.5468C0.827484 9.18617 1.0879 7.90524 1.60873 6.70407C2.12957 5.5029 2.84734 4.44333 3.76205 3.52536C4.67677 2.60739 5.73471 1.88799 6.93588 1.36716C8.13706 0.846324 9.41798 0.585907 10.7787 0.585907C12.1393 0.585907 13.4219 0.846324 14.6263 1.36716C15.8308 1.88799 16.892 2.60739 17.8099 3.52536C18.7279 4.44333 19.4473 5.5029 19.9681 6.70407C20.489 7.90524 20.7494 9.18617 20.7494 10.5468C20.7494 11.9076 20.489 13.1885 19.9681 14.3896C19.4473 15.5908 18.7279 16.6504 17.8099 17.5683C16.892 18.4863 15.8324 19.2057 14.6312 19.7265ZM5.61264 12.3779C5.60612 12.583 5.67448 12.7539 5.81771 12.8906C5.97396 13.0533 6.15788 13.1363 6.36947 13.1396C6.58106 13.1429 6.75847 13.0664 6.9017 12.9101L10.7982 8.77926L14.6947 12.9101C14.8379 13.0664 15.0153 13.1429 15.2269 13.1396C15.4385 13.1363 15.6224 13.0533 15.7787 12.8906C15.9219 12.7539 15.9902 12.583 15.9837 12.3779C15.9772 12.1728 15.8958 11.9889 15.7396 11.8261L11.8041 7.63668C11.5892 7.40882 11.3678 7.25908 11.14 7.18746C10.9121 7.11585 10.6842 7.11748 10.4564 7.19235C10.2285 7.26722 10.0072 7.41533 9.79232 7.63668L5.85678 11.8261C5.70052 11.9889 5.61914 12.1728 5.61264 12.3779Z"/>
</symbol>
</defs>
</svg>