<svg width="20" height="21" viewBox="0 0 20 21" fill="none" xmlns="http://www.w3.org/2000/svg">
<g clip-path="url(#clip0_2_3779)">
<path d="M0.0914307 8.61328C0.0914307 9.6875 0.293254 10.695 0.6969 11.6357C1.10055 12.5765 1.66044 13.405 2.37659 14.1211C3.09274 14.8372 3.92119 15.3971 4.86194 15.8008C5.80269 16.2044 6.81018 16.4062 7.8844 16.4062C8.73075 16.4062 9.53803 16.276 10.3062 16.0156C11.0745 15.7552 11.7776 15.3971 12.4156 14.9414L17.2203 19.7558C17.3375 19.8665 17.4661 19.9496 17.606 20.0049C17.746 20.0602 17.8942 20.0879 18.0504 20.0879C18.2718 20.0879 18.4671 20.0374 18.6363 19.9365C18.8056 19.8356 18.9374 19.6972 19.0318 19.5215C19.1262 19.3457 19.1734 19.1504 19.1734 18.9355C19.1734 18.7793 19.1458 18.6328 19.0904 18.4961C19.0351 18.3594 18.9554 18.2389 18.8512 18.1348L14.0758 13.3301C14.5771 12.679 14.9693 11.9531 15.2525 11.1523C15.5357 10.3516 15.6773 9.50521 15.6773 8.61328C15.6773 7.53906 15.4755 6.53158 15.0719 5.59082C14.6683 4.65007 14.1084 3.82162 13.3922 3.10547C12.6761 2.38933 11.8476 1.82943 10.9068 1.42578C9.9661 1.02214 8.95862 0.820312 7.8844 0.820312C6.81018 0.820312 5.80269 1.02214 4.86194 1.42578C3.92119 1.82943 3.09274 2.38933 2.37659 3.10547C1.66044 3.82162 1.10055 4.65007 0.6969 5.59082C0.293254 6.53158 0.0914307 7.53906 0.0914307 8.61328ZM1.76135 8.61328C1.76135 7.76693 1.91923 6.97429 2.23498 6.23535C2.55074 5.49642 2.99019 4.84538 3.55334 4.28222C4.11649 3.71908 4.76754 3.27962 5.50647 2.96386C6.2454 2.64811 7.03805 2.49023 7.8844 2.49023C8.73075 2.49023 9.5234 2.64811 10.2623 2.96386C11.0013 3.27962 11.6507 3.71908 12.2105 4.28222C12.7705 4.84538 13.2099 5.49642 13.5289 6.23535C13.8479 6.97429 14.0074 7.76693 14.0074 8.61328C14.0074 9.45964 13.8479 10.2523 13.5289 10.9912C13.2099 11.7301 12.7705 12.3795 12.2105 12.9394C11.6507 13.4993 11.0013 13.9388 10.2623 14.2578C9.5234 14.5768 8.73075 14.7363 7.8844 14.7363C7.03805 14.7363 6.2454 14.5768 5.50647 14.2578C4.76754 13.9388 4.11649 13.4993 3.55334 12.9394C2.99019 12.3795 2.55074 11.7301 2.23498 10.9912C1.91923 10.2523 1.76135 9.45964 1.76135 8.61328ZM4.66174 8.61328C4.66174 8.8151 4.73173 8.98437 4.8717 9.12109C5.01167 9.25781 5.17932 9.32617 5.37463 9.32617H7.17151V11.1133C7.17151 11.3151 7.2415 11.486 7.38147 11.626C7.52144 11.7659 7.68909 11.8359 7.8844 11.8359C8.08622 11.8359 8.25712 11.7659 8.39709 11.626C8.53706 11.486 8.60705 11.3151 8.60705 11.1133V9.32617H10.3941C10.596 9.32617 10.7653 9.25781 10.9019 9.12109C11.0387 8.98437 11.107 8.8151 11.107 8.61328C11.107 8.41146 11.0387 8.24056 10.9019 8.10058C10.7653 7.96061 10.596 7.89062 10.3941 7.89062H8.60705V6.10351C8.60705 5.90169 8.53706 5.7308 8.39709 5.59082C8.25712 5.45085 8.08622 5.38086 7.8844 5.38086C7.68909 5.38086 7.52144 5.45085 7.38147 5.59082C7.2415 5.7308 7.17151 5.90169 7.17151 6.10351V7.89062H5.37463C5.17932 7.89062 5.01167 7.96061 4.8717 8.10058C4.73173 8.24056 4.66174 8.41146 4.66174 8.61328Z" fill="white" fill-opacity="0.85"/>
</g>
<defs>
<clipPath id="clip0_2_3779">
<rect width="19.082" height="19.2676" fill="white" transform="translate(0.0914307 0.820312)"/>
</clipPath>
</defs>
</svg>
